<?xml version="1.0" encoding="UTF-8" standalone="no"?>
<!DOCTYPE svg PUBLIC "-//W3C//DTD SVG 1.1//EN" "http://www.w3.org/Graphics/SVG/1.1/DTD/svg11.dtd">
<svg width="100%" height="100%" viewBox="0 0 776 34" version="1.1" xmlns="http://www.w3.org/2000/svg" xmlns:xlink="http://www.w3.org/1999/xlink" xml:space="preserve" xmlns:serif="http://www.serif.com/" style="fill-rule:evenodd;clip-rule:evenodd;stroke-linejoin:round;stroke-miterlimit:2;">
    <g transform="matrix(1,0,0,1,-152,-534.245)">
        <g transform="matrix(1,0,0,1,168.998,543.824)">
            <path d="M0,14.65C0,9.391 -3.193,5.775 -8.922,5.775L-11.927,5.775L-11.927,22.726L-7.936,22.726C-2.536,22.726 0,19.674 0,14.65M-9.015,4.743C-4.79,4.743 -2.113,2.207 -2.113,-1.69C-2.113,-5.587 -4.508,-8.076 -9.486,-8.076L-11.927,-8.076L-11.927,4.743L-9.015,4.743ZM-16.998,-9.109L-8.687,-9.109C-1.034,-9.109 3.098,-6.479 3.098,-2.066C3.098,1.831 -0.658,4.273 -5.447,5.024L-5.447,5.119C0.469,5.729 5.259,8.734 5.259,14.51C5.259,19.956 0.704,23.759 -6.904,23.759L-16.998,23.759L-16.998,-9.109Z" style="fill:rgb(6,3,1);fill-rule:nonzero;"/>
        </g>
        <g transform="matrix(1,0,0,1,209.038,546.782)">
            <path d="M0,8.593L-5.822,-6.103L-11.55,8.593L0,8.593ZM-4.508,-12.208L-3.193,-12.208L10.189,20.801L4.838,20.801L0.423,9.626L-11.973,9.626L-16.34,20.801L-18.03,20.801L-4.508,-12.208Z" style="fill:rgb(6,3,1);fill-rule:nonzero;"/>
        </g>
        <g transform="matrix(1,0,0,1,237.716,547.722)">
            <path d="M0,7.324L0,-13.007L5.071,-13.007L5.071,6.948C5.071,13.992 8.875,17.842 14.743,17.842C21.035,17.842 24.321,13.71 24.321,6.714L24.321,-13.007L25.731,-13.007L25.731,7.184C25.731,15.26 20.705,20.331 13.007,20.331C5.352,20.331 0,15.823 0,7.324" style="fill:rgb(6,3,1);fill-rule:nonzero;"/>
        </g>
        <g transform="matrix(1,0,0,1,326.816,543.824)">
            <path d="M0,14.65C0,9.391 -3.193,5.775 -8.922,5.775L-11.927,5.775L-11.927,22.726L-7.936,22.726C-2.536,22.726 0,19.674 0,14.65M-9.015,4.743C-4.79,4.743 -2.113,2.207 -2.113,-1.69C-2.113,-5.587 -4.508,-8.076 -9.486,-8.076L-11.927,-8.076L-11.927,4.743L-9.015,4.743ZM-16.998,-9.109L-8.687,-9.109C-1.034,-9.109 3.098,-6.479 3.098,-2.066C3.098,1.831 -0.658,4.273 -5.447,5.024L-5.447,5.119C0.469,5.729 5.259,8.734 5.259,14.51C5.259,19.956 0.704,23.759 -6.904,23.759L-16.998,23.759L-16.998,-9.109Z" style="fill:rgb(6,3,1);fill-rule:nonzero;"/>
        </g>
        <g transform="matrix(1,0,0,1,359.955,548.426)">
            <path d="M0,5.446L-11.034,-13.711L-5.259,-13.711L4.46,3.709L14.274,-13.711L16.105,-13.711L4.978,5.212L4.978,19.157L0,19.157L0,5.446Z" style="fill:rgb(6,3,1);fill-rule:nonzero;"/>
        </g>
        <g transform="matrix(1,0,0,1,436.706,543.824)">
            <path d="M0,14.65C0,9.391 -3.193,5.775 -8.922,5.775L-11.927,5.775L-11.927,22.726L-7.936,22.726C-2.536,22.726 0,19.674 0,14.65M-9.015,4.743C-4.79,4.743 -2.113,2.207 -2.113,-1.69C-2.113,-5.587 -4.508,-8.076 -9.486,-8.076L-11.927,-8.076L-11.927,4.743L-9.015,4.743ZM-16.998,-9.109L-8.687,-9.109C-1.034,-9.109 3.098,-6.479 3.098,-2.066C3.098,1.831 -0.658,4.273 -5.447,5.024L-5.447,5.119C0.469,5.729 5.259,8.734 5.259,14.51C5.259,19.956 0.704,23.759 -6.902,23.759L-16.998,23.759L-16.998,-9.109Z" style="fill:rgb(6,3,1);fill-rule:nonzero;"/>
        </g>
        <g transform="matrix(1,0,0,1,471.112,552.182)">
            <path d="M0,-2.066C4.883,-2.066 7.841,-5.165 7.841,-9.579C7.841,-13.945 5.166,-16.434 0.188,-16.434L-3.944,-16.434L-3.944,-2.066L0,-2.066ZM-9.015,-17.467L1.08,-17.467C7.795,-17.467 13.054,-14.931 13.054,-9.72C13.054,-5.212 8.782,-2.488 3.288,-1.549L3.288,-1.409C7.279,-1.173 10.002,0.798 11.552,4.883L14.134,11.738C14.837,13.711 16.012,14.837 17.326,14.837L17.326,15.401L12.959,15.401C10.518,15.401 9.533,14.086 8.875,12.162L6.198,4.554C4.883,0.986 3.475,-1.033 -0.751,-1.033L-3.944,-1.033L-3.944,15.401L-9.015,15.401L-9.015,-17.467Z" style="fill:rgb(6,3,1);fill-rule:nonzero;"/>
        </g>
        <g transform="matrix(1,0,0,1,0,378.298)">
            <rect x="507.115" y="156.417" width="5.071" height="32.868" style="fill:rgb(6,3,1);"/>
        </g>
        <g transform="matrix(1,0,0,1,557.395,551.102)">
            <path d="M0,0.094C0,-9.672 -4.32,-15.354 -12.912,-15.354L-17.843,-15.354L-17.843,15.448L-12.912,15.448C-4.32,15.448 0,9.86 0,0.094M-22.914,-16.387L-12.396,-16.387C-2.254,-16.387 5.634,-9.955 5.634,-0.001C5.634,10.001 -2.254,16.481 -12.396,16.481L-22.914,16.481L-22.914,-16.387Z" style="fill:rgb(6,3,1);fill-rule:nonzero;"/>
        </g>
        <g transform="matrix(1,0,0,1,583.114,567.583)">
            <path d="M0,-32.868L18.829,-32.868L18.829,-31.788L5.071,-31.788L5.071,-18.312L16.623,-18.312L16.623,-17.233L5.071,-17.233L5.071,-1.081L18.829,-1.081L18.829,0L0,0L0,-32.868Z" style="fill:rgb(6,3,1);fill-rule:nonzero;"/>
        </g>
        <g transform="matrix(1,0,0,1,660.711,546.782)">
            <path d="M0,8.593L-5.822,-6.103L-11.55,8.593L0,8.593ZM-4.508,-12.208L-3.193,-12.208L10.189,20.801L4.836,20.801L0.423,9.626L-11.973,9.626L-16.34,20.801L-18.03,20.801L-4.508,-12.208Z" style="fill:rgb(6,3,1);fill-rule:nonzero;"/>
        </g>
        <g transform="matrix(1,0,0,1,691.36,563.451)">
            <path d="M0,-24.134L0,4.132L-1.408,4.132L-1.408,-25.496L-3.944,-28.501L-3.944,-28.736L2.536,-28.736L22.21,-4.178L22.21,-28.736L23.619,-28.736L23.619,4.602L23.149,4.602L0,-24.134Z" style="fill:rgb(6,3,1);fill-rule:nonzero;"/>
        </g>
        <g transform="matrix(1,0,0,1,759.854,551.102)">
            <path d="M0,0.094C0,-9.672 -4.32,-15.354 -12.912,-15.354L-17.843,-15.354L-17.843,15.448L-12.912,15.448C-4.32,15.448 0,9.86 0,0.094M-22.914,-16.387L-12.396,-16.387C-2.254,-16.387 5.634,-9.955 5.634,-0.001C5.634,10.001 -2.254,16.481 -12.396,16.481L-22.914,16.481L-22.914,-16.387Z" style="fill:rgb(6,3,1);fill-rule:nonzero;"/>
        </g>
        <g transform="matrix(1,0,0,1,818.105,548.426)">
            <path d="M0,5.446L-11.034,-13.711L-5.259,-13.711L4.46,3.709L14.274,-13.711L16.105,-13.711L4.976,5.212L4.976,19.157L0,19.157L0,5.446Z" style="fill:rgb(6,3,1);fill-rule:nonzero;"/>
        </g>
        <g transform="matrix(1,0,0,1,877.067,550.397)">
            <path d="M0,1.503C0,-7.23 -4.272,-14.977 -10.611,-14.977C-16.903,-14.977 -20.565,-8.263 -20.565,0C-20.565,8.734 -16.293,16.481 -9.952,16.481C-3.614,16.481 0,9.767 0,1.503M-26.152,1.127C-26.152,-9.343 -18.171,-16.152 -10.047,-16.152C-1.783,-16.152 5.589,-9.906 5.589,0.376C5.589,10.846 -2.394,17.655 -10.47,17.655C-18.782,17.655 -26.152,11.41 -26.152,1.127" style="fill:rgb(6,3,1);fill-rule:nonzero;"/>
        </g>
        <g transform="matrix(1,0,0,1,902.269,547.722)">
            <path d="M0,7.324L0,-13.007L5.071,-13.007L5.071,6.948C5.071,13.992 8.875,17.842 14.743,17.842C21.035,17.842 24.321,13.71 24.321,6.714L24.321,-13.007L25.731,-13.007L25.731,7.184C25.731,15.26 20.705,20.331 13.007,20.331C5.352,20.331 0,15.823 0,7.324" style="fill:rgb(6,3,1);fill-rule:nonzero;"/>
        </g>
    </g>
</svg>
